<?xml version="1.0" standalone="no"?><!DOCTYPE svg PUBLIC "-//W3C//DTD SVG 1.1//EN" "http://www.w3.org/Graphics/SVG/1.1/DTD/svg11.dtd"><svg class="icon" width="200px" height="200.00px" viewBox="0 0 1024 1024" version="1.1" xmlns="http://www.w3.org/2000/svg"><path d="M228.917647 170.635922a134 61.9 76.507 1 0 120.382926-28.885829 134 61.9 76.507 1 0-120.382926 28.885829Z" fill="#542e18" /><path d="M313.4 297.3c-17.4 0-35.8-11.3-52.6-32.6-18.2-23-32.9-55.6-41.6-91.7s-10.3-71.9-4.6-100.6c6.3-31.4 20.8-51.3 40.9-56.1 20.1-4.8 42.1 6.4 61.9 31.5 18.2 23 32.9 55.6 41.6 91.7 8.7 36.2 10.3 71.9 4.6 100.6-6.3 31.4-20.8 51.3-40.9 56.1-3.1 0.7-6.2 1.1-9.3 1.1zM264.7 35.1c-1.6 0-3.1 0.2-4.5 0.5-11.9 2.9-21.3 17.7-25.9 40.6-5.2 25.9-3.6 58.6 4.4 92.1 8 33.4 21.5 63.3 37.9 84 14.5 18.4 29.6 27.3 41.5 24.4 11.9-2.9 21.3-17.7 25.9-40.6 5.2-25.9 3.6-58.6-4.4-92.1-8-33.4-21.5-63.3-37.9-84-12.7-16.1-26-24.9-37-24.9z"  /><path d="M795.34544 170.6093a61.9 134 13.493 1 0-120.382927-28.885829 61.9 134 13.493 1 0 120.382927 28.885829Z" fill="#542e18" /><path d="M710.8 297.3c-3.1 0-6.2-0.4-9.3-1.1-20.1-4.8-34.6-24.8-40.9-56.1-5.7-28.7-4.1-64.5 4.6-100.6 8.7-36.2 23.5-68.8 41.6-91.7 19.8-25.1 41.8-36.3 61.9-31.5 20.1 4.8 34.6 24.8 40.9 56.1 5.7 28.7 4.1 64.5-4.6 100.6-8.7 36.2-23.5 68.8-41.6 91.7-16.8 21.3-35.1 32.6-52.6 32.6z m48.7-262.2c-11.1 0-24.3 8.8-37 24.9-16.4 20.8-29.8 50.6-37.9 84-8 33.4-9.6 66.1-4.4 92.1 4.6 23 14 37.8 25.9 40.6 1.5 0.4 3 0.5 4.5 0.5 11.1 0 24.3-8.8 37-24.9 16.4-20.8 29.8-50.6 37.9-84s9.6-66.1 4.4-92.1c-4.6-23-14-37.8-25.9-40.6-1.4-0.3-2.9-0.5-4.5-0.5z"  /><path d="M242.6 544.9a269.5 391.4 0 1 0 539 0 269.5 391.4 0 1 0-539 0Z" fill="#ffffff" /><path d="M512.1 946.3c-38.3 0-75.3-10.8-110.1-32.2-33.3-20.4-63.1-49.6-88.7-86.7-52-75.6-80.7-175.9-80.7-282.4s28.7-206.8 80.7-282.4c25.5-37.1 55.4-66.3 88.7-86.7 34.8-21.4 71.9-32.2 110.1-32.2s75.3 10.8 110.1 32.2c33.3 20.4 63.1 49.6 88.7 86.7 52 75.6 80.7 175.9 80.7 282.4s-28.7 206.8-80.7 282.4c-25.5 37.1-55.4 66.3-88.7 86.7-34.8 21.3-71.8 32.2-110.1 32.2z m0-782.7C369 163.6 252.6 334.7 252.6 545c0 210.3 116.4 381.4 259.5 381.4S771.6 755.3 771.6 545c0-210.3-116.4-381.4-259.5-381.4z"  /><path d="M324.6 897.7a187.5 103.6 0 1 0 375 0 187.5 103.6 0 1 0-375 0Z" fill="#64666d" /><path d="M512.1 1011.3c-51.8 0-100.6-11.2-137.4-31.6-38.7-21.4-60.1-50.5-60.1-82s21.3-60.6 60.1-82c36.9-20.4 85.7-31.6 137.4-31.6s100.6 11.2 137.4 31.6c38.7 21.4 60.1 50.5 60.1 82s-21.3 60.6-60.1 82c-36.8 20.4-85.6 31.6-137.4 31.6z m0-207.2c-48.4 0-93.8 10.3-127.8 29.1-32.1 17.7-49.8 40.6-49.8 64.5s17.7 46.8 49.8 64.5c34 18.8 79.3 29.1 127.8 29.1s93.8-10.3 127.8-29.1c32.1-17.7 49.8-40.6 49.8-64.5s-17.7-46.8-49.8-64.5c-34-18.7-79.4-29.1-127.8-29.1z" fill="#070707" /><path d="M443.1 884.9s41 25.9 40.4 47.1" fill="#64666d" /><path d="M483.5 942h-0.3c-5.5-0.2-9.9-4.8-9.7-10.3 0.1-2-0.9-9.6-16.4-23.6-9.4-8.5-19.2-14.7-19.3-14.8-4.7-3-6.1-9.1-3.1-13.8 3-4.7 9.1-6.1 13.8-3.1 0.4 0.3 11.1 7 21.8 16.6 16 14.4 23.6 27.2 23.3 39.3-0.3 5.4-4.7 9.7-10.1 9.7z" fill="#070707" /><path d="M581.1 884.9s-41 25.9-40.4 47.1" fill="#64666d" /><path d="M540.7 942c-5.4 0-9.8-4.3-10-9.7-0.4-12 7.2-24.9 23.3-39.3 10.7-9.6 21.3-16.3 21.8-16.6 4.7-2.9 10.8-1.6 13.8 3.1s1.6 10.8-3.1 13.8c-14.6 9.3-36 27.8-35.7 38.3 0.2 5.5-4.2 10.1-9.7 10.3-0.2 0.1-0.3 0.1-0.4 0.1z" fill="#070707" /><path d="M339 586.8m-30.2 0a30.2 30.2 0 1 0 60.4 0 30.2 30.2 0 1 0-60.4 0Z"  /><path d="M685.2 586.8m-30.2 0a30.2 30.2 0 1 0 60.4 0 30.2 30.2 0 1 0-60.4 0Z"  /><path d="M713.1 170.3S460.8 90.6 443.2 58.1s-69 93.2-41.8 130.2c0 0-99.5 43.8-128 175.2 0 0 148.8 29.1 238.8-26.7 0 0 12.3 83.6-48.8 92.9 0 0 50.4 46.5 152.7-69.7 0 0 68.7 60.2 39 78.9-0.1 0.1 192.2-86.6 58-268.6z" fill="#542e18" /><path d="M655 449c-3.6 0-7-1.9-8.8-5.3-2.5-4.6-1-10.4 3.5-13.2 2.1-1.3 2.6-2.6 2.8-4.2 0.9-11.7-18.8-35.6-35.7-52C573.1 422 533 447 497.4 448.9c-25.9 1.4-39.4-10.4-40.9-11.7-2.8-2.6-3.9-6.6-2.8-10.3 1.1-3.7 4.3-6.4 8.1-7 21.1-3.2 33.8-17 39-42.1 1.8-8.9 2.3-17.5 2.3-24.5-37.3 18.8-85.8 28.1-144.2 27.8-48.8-0.3-86-7.5-87.5-7.8-2.6-0.5-5-2.1-6.4-4.3-1.5-2.2-2-5-1.4-7.6 15.2-70.3 50.5-116 77.5-142 19-18.3 36.5-29.6 46.8-35.4-11.3-29.9 1.7-80.1 16.5-109.9 10.3-20.9 20.6-31.2 31.4-31.4 3.9-0.1 11.1 1.2 16.2 10.5 1.5 2.8 15.4 19.3 136.2 63.7 64.3 23.6 127.3 43.6 127.9 43.8 2 0.6 3.8 1.9 5 3.6 43.1 58.4 58.2 113.7 44.9 164.5-20.8 79.6-103.4 117.7-106.9 119.2-1.3 0.7-2.7 1-4.1 1z m-162.5-20c2.9 0 6.2-0.1 9.7-0.7 38.3-5.6 78.9-43.8 106.3-74.8 3.6-4.1 9.9-4.6 14.1-0.9 0.5 0.5 12.7 11.2 24.9 25.2 13.6 15.7 21.6 29 24.1 40.3 24.3-15.7 62.9-47.3 75.2-94.4 11.4-43.9-2-92.6-39.8-144.8-13.6-4.3-69.1-22.3-125.7-43.1C466 93.4 441.7 75 434.9 63.9c-5.2 4.5-15.6 20.4-23.8 47.6-9.5 31.5-10.2 59.4-1.8 70.9 1.8 2.4 2.4 5.6 1.6 8.5-0.8 2.9-2.9 5.3-5.6 6.6-0.2 0.1-24.2 10.9-51.1 37-23.4 22.7-53.7 61.7-68.8 120.9 14.2 2.1 41.6 5.5 73.9 5.7 42.8 0.2 103.1-5.2 147.4-32.7 2.9-1.8 6.4-2 9.5-0.6 3.1 1.4 5.2 4.3 5.7 7.6 0.1 0.9 3.3 22.9-1.6 46.5-4.3 21.4-13.8 37.3-27.8 47.1z"  /></svg>