<?xml version="1.0" standalone="no"?><!DOCTYPE svg PUBLIC "-//W3C//DTD SVG 1.1//EN" "http://www.w3.org/Graphics/SVG/1.1/DTD/svg11.dtd"><svg class="icon" width="200px" height="200.00px" viewBox="0 0 1024 1024" version="1.1" xmlns="http://www.w3.org/2000/svg"><path d="M897.391441 348.081697c1.37123-2.653433 2.308579-5.568832 2.532683-8.736988l16.987906-238.913345c0.575098-7.984858-3.096525-15.660678-9.66615-20.217461-6.613628-4.578272-15.108093-5.308913-22.318308-1.990331l-174.699857 79.80765c-0.727571 0.331551-1.186012 0.950651-1.860371 1.347694-54.591339-26.756387-115.690906-42.203194-180.470281-42.203194-54.280254 0-106.013499 10.81123-153.514349 29.967522-1.541099-2.036379-3.28379-3.966335-5.548366-5.436826L232.931097 53.471842c-6.636141-4.290723-15.041578-4.821819-22.230304-1.37123-7.122211 3.450589-11.945053 10.395768-12.674671 18.292622L175.37524 314.836525c-0.059352 0.642636 0.203638 1.210571 0.197498 1.846044-37.627992 62.140269-59.699684 134.700865-59.699684 212.492602 0 227.190349 184.830589 412.020938 412.020938 412.020938 227.167836 0 411.998425-184.830589 411.998425-412.020938C939.894464 464.149179 924.339186 402.828578 897.391441 348.081697zM869.023346 135.269823l-10.585079 149.022035c-28.237111-38.010709-62.539358-71.233368-101.94381-97.620341L869.023346 135.269823zM239.677754 111.867834l88.308255 57.345056c-37.765115 21.056572-71.677483 48.022737-100.970646 79.415724L239.677754 111.867834zM527.896038 895.895367c-202.216561 0-366.720196-164.502611-366.720196-366.720196 0-202.195072 164.503635-366.697683 366.720196-366.697683 202.195072 0 366.697683 164.503635 366.697683 366.697683C894.593721 731.391732 730.090087 895.895367 527.896038 895.895367z" fill="#e16531" /><path d="M474.365868 491.306702c0-41.827641-47.977711-74.586742-109.22668-74.586742-61.226456 0-109.204168 32.759101-109.204168 74.586742s47.977711 74.586742 109.204168 74.586742C426.38918 565.893444 474.365868 533.134343 474.365868 491.306702zM277.258675 491.306702c0-28.866445 40.235376-53.264111 87.880513-53.264111 15.326057 0 29.684066 2.733251 42.388413 7.118118-21.12104 4.7727-36.95261 23.601534-36.95261 46.096874 0 22.595624 15.838733 41.425482 36.966936 46.189995-12.706393 4.38896-27.071565 7.122211-42.402739 7.122211C317.494051 544.56979 277.258675 520.172123 277.258675 491.306702z" fill="#e16531" /><path d="M678.994362 407.340335c-65.097624 0-116.083855 34.815947-116.083855 79.276554s50.985208 79.276554 116.083855 79.276554 116.083855-34.815947 116.083855-79.276554S744.091986 407.340335 678.994362 407.340335zM585.561389 486.61689c0-30.702256 42.779316-56.625672 93.432972-56.625672 22.072715 0 42.379203 5.117554 58.574047 13.213953-23.25975 1.898233-41.637306 21.199835-41.637306 44.905746 0 22.049179 15.755846 40.384779 36.58729 44.457538-15.295358 6.640234-33.752732 10.67513-53.524031 10.67513C628.340705 543.242562 585.561389 517.319146 585.561389 486.61689z" fill="#e16531" /><path d="M633.648594 642.847094c-5.950526-1.858324-12.320607 1.37123-14.245446 7.343245-2.454912 7.67582-13.426801 32.648584-51.4283 32.648584-0.13303 0-0.265036 0-0.420579 0-30.776957-0.146333-48.050366-41.177841-53.145407-55.482639l20.218484-23.059182c6.048763-6.897084 1.151219-17.705244-8.022721-17.705244l-50.627051 0c-8.975419 0-13.939477 10.402931-8.29799 17.381879l20.090571 24.838711c-21.453614 45.413306-38.427194 53.240575-46.851051 53.407374-0.110517 0.022513-0.221034 0.022513-0.331551 0.022513-14.33345 0-26.853601-19.111267-30.502711-26.543539-2.742461-5.640464-9.599635-7.918343-15.129582-5.219885-5.617951 2.742461-7.963369 9.489118-5.242398 15.108093 0.774643 1.614777 19.354813 39.306214 50.853202 39.306214 0.243547 0 0.487094 0 0.708128-0.022513 21.411659-0.375553 41.031509-17.252943 59.612703-51.449789 11.17041 22.428825 32.338522 51.91437 66.579371 52.069913 0.154519 0 0.331551 0 0.508583 0 42.38125 0 65.49569-24.951275 73.01699-48.397267C642.895189 651.142014 639.621633 644.771933 633.648594 642.847094z" fill="#e16531" /></svg>